<svg xmlns="http://www.w3.org/2000/svg" viewBox="0 0 512 512" role="img" aria-label="Nightingale logo">
  <defs>
    <radialGradient id="sky" cx="35%" cy="25%" r="70%">
      <stop offset="0%" stop-color="#d7ecff" />
      <stop offset="55%" stop-color="#9fc6ef" />
      <stop offset="100%" stop-color="#6aa6dc" />
    </radialGradient>
  </defs>
  <circle cx="256" cy="256" r="238" fill="url(#sky)" />
  <circle cx="256" cy="256" r="238" fill="none" stroke="#173c6a" stroke-width="18" />

  <path d="M96 360c56 40 112 60 176 60s120-20 176-60c-10 46-54 84-112 84H208c-58 0-102-38-112-84z" fill="#173c6a" />

  <path d="M150 210c0-62 50-112 112-112" fill="none" stroke="#f4fbff" stroke-width="26" stroke-linecap="round" />
  <circle cx="208" cy="172" r="18" fill="#f4fbff" />
  <circle cx="362" cy="176" r="6" fill="#f4fbff" />
  <circle cx="330" cy="118" r="5" fill="#f4fbff" />
  <circle cx="298" cy="144" r="4" fill="#f4fbff" />

  <ellipse cx="250" cy="286" rx="140" ry="90" fill="#f9fdff" />
  <circle cx="330" cy="228" r="40" fill="#f9fdff" />
  <path d="M358 226l36 12-34 16z" fill="#173c6a" />
  <path d="M140 308c36-54 96-84 156-90 38-4 74 10 96 40-48 28-118 56-192 78-24 8-44 2-60-28z" fill="#9fc6ef" />
  <path d="M170 346c36-20 90-40 134-44 30-2 58 8 78 30-38 20-92 40-150 54-22 6-44-2-62-40z" fill="#7fb1e2" />

  <path d="M302 304c10-18 30-26 50-26 24 0 44 14 48 34-10 14-28 24-48 24-20 0-38-8-50-32z" fill="#8dbce8" />
  <path d="M292 290c0-20 16-36 36-36 20 0 36 16 36 36 0 6-2 10-6 16-10-14-22-20-34-20-12 0-24 6-32 18-2-4-2-8-2-14z" fill="#f9fdff" />
</svg>
